# xmcd
#
# Track frame offsets:
#	150
#	17565
#	35408
#	53039
#	65741
#	78318
#	92002
#	106237
#	122760
#	138095
#	150205
#	164144
#	181684
#
# Disc length: 2655 seconds
#
# Revision: 0
# Processed by: cddbd v1.5.2PL0 Copyright (c) Steve Scherf et al.
# Submitted via: audiograbber 1.83.01
#
DISCID=9a0a5d0d
DTITLE=Rhenan and Allim - Dupla
DYEAR=1900
DGENRE=
TTITLE0=Santa Maria do Brasil
TTITLE1=Ultimo Julgamento
TTITLE2=Idas e VoltasI
TTITLE3=Colcha de Retalhos
TTITLE4=Em mulher não se bate
TTITLE5=Saudade de minha terra
TTITLE6=Turbilhão
TTITLE7=Pranto Escondido
TTITLE8=Tropeiro Gaucho
TTITLE9=Milonga pra ela
TTITLE10=Meu mundo caiu
TTITLE11=Obrigado Pai
TTITLE12=O matuto
EXTD=
EXTT0=
EXTT1=
EXTT2=
EXTT3=
EXTT4=
EXTT5=
EXTT6=
EXTT7=
EXTT8=
EXTT9=
EXTT10=
EXTT11=
EXTT12=
PLAYORDER=
